<?xml version="1.0" standalone="no"?>
<!DOCTYPE svg PUBLIC "-//W3C//DTD SVG 20010904//EN"
 "http://www.w3.org/TR/2001/REC-SVG-20010904/DTD/svg10.dtd">
<svg version="1.0" xmlns="http://www.w3.org/2000/svg"
 width="626.000000pt" height="626.000000pt" viewBox="0 0 626.000000 626.000000"
 preserveAspectRatio="xMidYMid meet">

<g transform="translate(0.000000,626.000000) scale(0.100000,-0.100000)"
fill="#000000" stroke="none">
<path d="M1705 5209 c-355 -54 -611 -238 -736 -529 -87 -202 -114 -389 -106
-745 5 -257 11 -318 80 -798 18 -125 29 -233 25 -240 -15 -24 -8 -81 16 -121
15 -27 32 -91 50 -186 87 -466 277 -1213 381 -1495 173 -468 398 -696 690
-699 82 -1 96 2 158 31 116 55 217 174 315 369 52 103 76 163 172 419 152 407
208 513 305 579 62 43 129 32 186 -31 68 -74 119 -184 244 -513 201 -532 321
-727 503 -817 71 -36 81 -38 166 -37 282 2 500 212 669 644 98 249 256 836
356 1320 74 361 90 444 106 555 108 757 115 826 115 1109 0 209 -15 350 -51
486 -101 383 -338 603 -744 692 -38 8 -133 13 -255 13 -248 0 -249 0 -766
-153 -201 -60 -248 -67 -454 -67 -242 0 -316 14 -683 129 -249 78 -309 89
-507 92 -96 1 -202 -2 -235 -7z m411 -54 c88 -14 203 -45 444 -121 203 -63
326 -85 516 -91 186 -6 276 3 429 42 49 13 99 26 110 30 11 3 -4 -16 -33 -43
-104 -97 -225 -142 -384 -142 -71 0 -88 -3 -88 -15 0 -22 41 -28 153 -23 165
9 246 48 426 205 78 68 121 86 353 141 103 24 130 26 313 26 182 0 208 -3 296
-26 129 -35 226 -78 315 -140 184 -127 293 -307 351 -578 31 -145 42 -455 24
-672 -12 -136 -96 -777 -104 -784 -2 -2 -21 5 -42 16 -38 19 -60 20 -627 20
l-588 0 0 103 c0 86 -4 110 -24 152 -29 61 -84 117 -145 147 l-46 23 -680 0
-680 0 -51 -27 c-64 -34 -128 -105 -148 -165 -10 -29 -16 -81 -16 -140 l0 -93
-547 0 c-430 -1 -556 -4 -585 -14 l-38 -13 -5 31 c-30 182 -83 596 -96 749
-17 212 -7 512 20 650 67 335 215 543 475 667 72 34 216 77 301 89 97 14 303
12 401 -4z m1681 -1810 c28 -15 63 -41 78 -60 53 -71 55 -86 55 -499 0 -431
-3 -454 -66 -519 -75 -77 -24 -72 -754 -75 -495 -2 -666 0 -699 9 -29 8 -62
29 -92 58 -76 74 -79 92 -79 517 0 416 3 442 64 511 77 87 33 83 782 83 l660
0 51 -25z m-1610 -492 c-3 -49 -6 -89 -6 -91 -1 -1 -250 -1 -555 0 -527 3
-555 4 -575 22 -43 39 -36 121 13 144 14 7 215 11 575 11 l553 1 -5 -87z
m2996 67 c50 -40 39 -128 -19 -150 -15 -6 -258 -10 -599 -10 l-573 0 -1 90 -1
90 583 0 c570 0 585 0 610 -20z m-2993 -378 c0 -111 4 -173 15 -209 20 -66 81
-135 153 -170 l57 -28 665 0 c751 0 719 -3 808 79 80 74 86 95 90 303 l4 183
601 2 c331 2 604 2 606 0 10 -5 -82 -449 -153 -744 -55 -228 -161 -607 -217
-773 -56 -169 -158 -385 -223 -472 -132 -177 -273 -263 -436 -266 -85 -1 -156
25 -231 85 -108 87 -230 302 -350 618 -159 423 -209 533 -276 619 -53 68 -94
94 -158 99 -159 13 -252 -118 -440 -623 -166 -444 -238 -584 -360 -698 -169
-158 -411 -129 -602 72 -182 190 -292 463 -482 1191 -70 272 -191 826 -191
878 0 16 45 17 560 14 l560 -2 0 -158z"/>
<path d="M2407 4334 c-13 -13 -7 -51 12 -75 16 -21 17 -27 5 -43 -18 -25 -38
-15 -69 33 -25 41 -55 47 -55 12 0 -26 38 -80 64 -92 23 -11 24 -14 19 -88 -5
-70 -3 -81 24 -130 27 -52 31 -55 86 -67 62 -15 126 -44 145 -67 10 -12 21
-13 55 -5 240 53 282 373 63 485 -69 36 -160 37 -228 4 -60 -29 -60 -29 -78 5
-17 29 -32 39 -43 28z m344 -100 c38 -36 59 -81 59 -130 0 -52 -23 -74 -77
-74 -88 0 -150 57 -168 152 -6 32 -3 41 20 64 24 24 32 26 81 22 43 -4 61 -11
85 -34z m-225 -115 c40 -44 12 -139 -41 -139 -49 0 -76 83 -45 139 14 28 61
27 86 0z m157 -121 c32 -17 46 -39 47 -74 0 -50 -21 -69 -78 -69 -40 0 -56 5
-76 24 -31 29 -35 84 -9 113 19 21 82 24 116 6z"/>
<path d="M3814 4318 c-13 -44 -21 -46 -76 -19 -132 65 -280 12 -353 -129 -27
-51 -26 -162 3 -216 39 -76 102 -126 179 -142 32 -7 46 -4 88 19 28 15 73 33
100 40 61 15 78 28 105 86 20 44 30 158 15 182 -3 5 3 12 14 16 34 11 82 74
79 103 -5 41 -41 42 -58 2 -12 -28 -44 -60 -61 -60 -18 0 -17 34 1 57 11 14
20 39 20 54 0 24 -4 29 -24 29 -17 0 -27 -7 -32 -22z m-94 -70 c47 -32 83
-103 77 -151 -3 -21 -11 -44 -17 -52 -16 -19 -90 -19 -135 -1 -72 31 -121 160
-76 205 30 30 106 29 151 -1z m-210 -128 c42 -42 13 -140 -40 -140 -33 0 -60
36 -60 78 0 73 55 107 100 62z m181 -136 c10 -11 21 -33 25 -51 5 -26 1 -37
-21 -59 -23 -23 -32 -26 -73 -21 -80 9 -121 88 -71 138 18 18 30 21 71 17 30
-3 57 -13 69 -24z"/>
<path d="M2990 3675 c-28 -33 43 -126 110 -146 58 -18 104 -4 155 45 34 32 45
50 45 73 0 18 -6 33 -15 37 -16 6 -45 -18 -45 -39 0 -24 -59 -65 -95 -65 -37
0 -90 37 -100 70 -9 29 -40 43 -55 25z"/>
<path d="M2701 3215 c-18 -8 -50 -15 -70 -15 -79 -1 -159 -62 -181 -138 -7
-24 -10 -137 -8 -324 l3 -286 30 -43 c32 -46 103 -88 148 -89 15 0 27 -4 27
-9 0 -4 12 -20 26 -35 19 -19 37 -26 64 -26 40 0 90 31 90 56 0 12 42 14 265
14 146 0 265 -4 265 -9 0 -4 11 -20 25 -35 33 -36 95 -37 130 -1 14 13 25 29
25 35 0 5 11 10 25 10 32 0 97 32 126 63 12 12 30 40 40 62 17 36 19 68 19
310 0 150 -5 286 -10 306 -19 69 -112 139 -184 139 -20 0 -51 8 -71 17 -33 16
-37 16 -70 0 -31 -15 -74 -17 -319 -17 -232 0 -289 3 -312 15 -35 18 -40 18
-83 0z m81 -42 c17 -15 18 -42 18 -436 0 -377 -2 -422 -17 -439 -20 -22 -56
-23 -77 -3 -25 25 -28 89 -25 483 4 409 5 412 57 412 14 0 34 -7 44 -17z m712
-5 c14 -19 16 -78 16 -437 0 -372 -2 -416 -17 -433 -21 -24 -58 -23 -83 2 -19
19 -20 33 -20 433 0 455 0 457 60 457 18 0 34 -8 44 -22z m-844 -408 l0 -409
-32 6 c-69 13 -106 43 -133 106 -12 29 -15 85 -15 293 0 163 4 271 11 295 18
60 89 115 152 118 16 1 17 -25 17 -409z m708 3 l-3 -408 -215 -3 c-118 -2
-234 -1 -257 3 l-43 6 -2 405 -3 404 263 0 262 0 -2 -407z m283 372 c66 -43
69 -58 69 -378 0 -279 0 -285 -23 -318 -28 -41 -82 -79 -113 -79 l-24 0 -2
401 c-2 220 -1 403 2 405 8 9 54 -7 91 -31z"/>
</g>
</svg>
