<?xml version="1.0" standalone="no"?>
<!DOCTYPE svg PUBLIC "-//W3C//DTD SVG 20010904//EN"
 "http://www.w3.org/TR/2001/REC-SVG-20010904/DTD/svg10.dtd">
<svg version="1.0" xmlns="http://www.w3.org/2000/svg"
 width="225.000000pt" height="225.000000pt" viewBox="0 0 225.000000 225.000000"
 preserveAspectRatio="xMidYMid meet">

<g transform="translate(0.000000,225.000000) scale(0.100000,-0.100000)"
fill="#000000" stroke="none">
<path d="M1207 1645 c34 -7 92 -28 128 -45 56 -27 65 -35 66 -58 0 -15 3 -21
6 -14 10 26 40 9 88 -50 28 -34 64 -90 81 -125 17 -34 33 -61 35 -59 2 2 5 -8
6 -22 13 -181 19 -232 26 -232 4 0 16 0 27 0 18 0 20 7 20 58 0 32 -5 85 -12
116 -13 67 -88 222 -105 219 -7 -2 -10 3 -7 11 6 17 -93 107 -162 145 -63 36
-175 71 -223 70 -30 0 -26 -3 26 -14z"/>
<path d="M1270 1571 c43 -9 97 -36 103 -53 3 -7 4 1 4 17 -2 37 -16 44 -87 43
-48 0 -51 -1 -20 -7z"/>
<path d="M838 1556 c-169 -47 -195 -177 -65 -323 41 -47 69 -107 80 -173 2
-14 5 -3 6 23 1 59 -18 108 -63 158 -66 72 -79 119 -52 183 31 73 94 92 249
72 67 -8 67 -8 67 16 0 21 -7 26 -47 36 -81 20 -126 22 -175 8z"/>
<path d="M1080 1511 c0 -11 9 -17 25 -19 32 -2 32 10 0 25 -21 9 -25 9 -25 -6z"/>
<path d="M1155 1510 c3 -5 8 -10 11 -10 2 0 4 5 4 10 0 6 -5 10 -11 10 -5 0
-7 -4 -4 -10z"/>
<path d="M1426 1512 c-3 -5 1 -15 9 -22 16 -14 20 -3 6 19 -5 8 -11 9 -15 3z"/>
<path d="M1404 1478 c3 -9 0 -19 -7 -21 -24 -9 3 -19 30 -12 19 5 23 9 13 13
-8 3 -21 12 -28 21 -12 15 -13 14 -8 -1z"/>
<path d="M1434 1425 c4 -11 -2 -15 -28 -15 -34 0 -83 -39 -69 -55 5 -4 3 -5
-3 -2 -6 4 -19 -2 -29 -13 -15 -16 -16 -30 -11 -81 7 -60 7 -61 -29 -95 -20
-19 -41 -34 -46 -34 -6 0 -8 -4 -5 -9 4 -5 -3 -7 -14 -4 -31 8 -23 -10 16 -36
43 -30 67 -63 82 -117 18 -61 14 -190 -6 -248 -17 -47 -44 -77 -57 -64 -3 3
-10 46 -15 96 -5 50 -19 116 -31 146 -20 54 -58 94 -77 82 -14 -8 -30 -81 -37
-161 l-5 -70 14 61 c8 34 20 71 28 83 14 23 40 28 56 9 11 -15 66 -287 59
-295 -3 -2 -24 -7 -46 -10 -41 -6 -68 -23 -36 -23 9 0 13 -4 10 -10 -3 -5 -16
-10 -28 -10 -19 -1 -20 -2 -5 -10 18 -11 48 -4 48 11 0 14 28 11 32 -3 6 -17
115 14 189 54 117 62 244 209 256 297 2 20 1 31 -4 25 -4 -6 -18 -10 -30 -9
-16 1 -27 -7 -38 -31 -30 -64 -108 -155 -169 -197 -59 -42 -157 -90 -165 -81
-2 2 7 14 21 28 61 56 72 102 72 327 l1 186 54 108 c54 110 75 185 51 185 -7
0 -10 -7 -6 -15z"/>
<path d="M939 1170 c32 -27 66 -35 104 -22 31 10 31 10 -16 11 -26 1 -62 8
-80 16 l-32 16 24 -21z"/>
<path d="M1620 1005 c0 -8 5 -15 10 -15 6 0 10 7 10 15 0 8 -4 15 -10 15 -5 0
-10 -7 -10 -15z"/>
<path d="M1660 1006 c0 -8 5 -18 10 -21 6 -3 10 3 10 14 0 12 -4 21 -10 21 -5
0 -10 -6 -10 -14z"/>
<path d="M1623 966 c-33 -15 -28 -26 12 -26 23 0 35 5 35 14 0 19 -21 24 -47
12z"/>
<path d="M839 970 c0 -3 -3 -16 -5 -30 -13 -71 42 -207 123 -299 45 -51 45
-52 17 -45 -150 36 -286 141 -354 273 -16 31 -29 52 -30 48 0 -5 14 -38 32
-73 78 -157 240 -275 413 -302 43 -7 55 -6 55 4 0 7 8 18 18 23 14 9 11 10
-17 11 -29 0 -33 3 -28 21 4 15 2 19 -9 15 -9 -3 -24 -1 -35 4 -31 17 -106
138 -135 217 -15 40 -31 73 -35 73 -5 0 -9 8 -9 18 0 14 2 15 10 2 9 -13 10
-13 10 0 0 14 -19 51 -21 40z m241 -410 c0 -5 -4 -10 -10 -10 -5 0 -10 5 -10
10 0 6 5 10 10 10 6 0 10 -4 10 -10z"/>
</g>
</svg>
