<?xml version="1.0" standalone="no"?>
<!DOCTYPE svg PUBLIC "-//W3C//DTD SVG 20010904//EN"
 "http://www.w3.org/TR/2001/REC-SVG-20010904/DTD/svg10.dtd">
<svg version="1.0" xmlns="http://www.w3.org/2000/svg"
 width="264.000000pt" height="191.000000pt" viewBox="0 0 264.000000 191.000000"
 preserveAspectRatio="xMidYMid meet">

<g transform="translate(0.000000,191.000000) scale(0.100000,-0.100000)"
fill="#000000" stroke="none">
<path d="M1578 1859 c-38 -5 -83 -15 -100 -23 l-33 -14 129 -61 c209 -100 304
-179 368 -308 27 -55 32 -77 36 -163 6 -122 -2 -154 -77 -317 -74 -163 -101
-264 -111 -423 -4 -69 -13 -138 -19 -154 -16 -39 -9 -42 36 -15 322 195 614
526 699 794 68 214 27 410 -112 533 -64 57 -137 96 -249 130 -73 23 -99 25
-290 28 -115 1 -240 -2 -277 -7z"/>
<path d="M515 1844 c-221 -32 -354 -140 -406 -329 -37 -137 -13 -269 88 -468
92 -184 154 -271 287 -402 113 -113 338 -285 371 -285 14 0 7 48 -15 105 -6
16 -15 89 -21 162 -13 169 -41 270 -121 428 -65 131 -94 232 -83 302 9 61 72
153 131 190 54 34 140 63 189 63 18 0 104 -18 193 -40 88 -22 182 -40 208 -40
45 0 268 47 322 67 23 9 23 10 -21 50 -103 95 -299 157 -608 193 -199 23 -370
24 -514 4z"/>
<path d="M103 821 c-22 -35 -45 -155 -46 -241 -2 -251 161 -426 477 -508 87
-22 121 -26 246 -25 149 0 317 25 391 56 31 13 18 15 -156 15 -224 -1 -353 17
-496 65 -187 64 -301 156 -367 294 l-37 78 0 143 c0 78 0 142 0 142 0 0 -6 -9
-12 -19z"/>
<path d="M2516 790 c3 -14 8 -72 11 -130 6 -117 -7 -179 -51 -255 -86 -145
-303 -224 -541 -196 -74 9 -107 19 -182 57 -77 37 -108 60 -180 133 -101 101
-154 127 -247 119 -74 -6 -133 -38 -226 -124 -45 -42 -96 -82 -112 -89 l-30
-12 33 -25 c91 -68 338 -163 524 -201 96 -19 141 -22 355 -22 271 0 330 9 441
67 72 37 169 134 208 207 59 112 66 292 17 426 -15 39 -23 59 -20 45z"/>
</g>
</svg>
