<?xml version="1.0" standalone="no"?>
<!DOCTYPE svg PUBLIC "-//W3C//DTD SVG 20010904//EN"
 "http://www.w3.org/TR/2001/REC-SVG-20010904/DTD/svg10.dtd">
<svg version="1.0" xmlns="http://www.w3.org/2000/svg"
 width="640.000000pt" height="640.000000pt" viewBox="0 0 640.000000 640.000000"
 preserveAspectRatio="xMidYMid meet">

<g transform="translate(0.000000,640.000000) scale(0.100000,-0.100000)"
fill="#000000" stroke="none">
<path d="M3669 3466 c-112 -30 -185 -146 -166 -262 9 -52 53 -121 96 -149 111
-74 248 -47 325 63 42 59 48 156 16 225 -48 101 -162 153 -271 123z m1 -106
c54 -54 -11 -141 -79 -105 -46 23 -53 57 -20 99 25 32 70 35 99 6z"/>
<path d="M2655 3451 c-48 -22 -74 -47 -106 -98 -19 -31 -24 -51 -24 -108 1
-78 15 -113 67 -165 43 -44 88 -61 158 -61 152 -1 261 140 220 285 -16 57 -72
123 -124 147 -53 24 -139 24 -191 0z m35 -91 c42 -42 11 -113 -50 -113 -61 0
-92 71 -50 113 11 11 33 20 50 20 17 0 39 -9 50 -20z"/>
<path d="M3023 2868 c16 -153 113 -278 217 -278 46 0 107 36 134 79 31 48 55
130 58 196 l3 50 -209 3 -209 2 6 -52z"/>
</g>
</svg>
